<svg xmlns="http://www.w3.org/2000/svg" viewBox="0 0 900 520" role="img" aria-label="Las Vegas skyline with appliance repair">
  <defs>
    <linearGradient id="bg" x1="0" x2="0" y1="0" y2="1">
      <stop offset="0" stop-color="#0b3c5d"/>
      <stop offset="1" stop-color="#0a2f48"/>
    </linearGradient>
    <linearGradient id="neon" x1="0" x2="1">
      <stop offset="0" stop-color="#e94b3c"/>
      <stop offset="1" stop-color="#ffd166"/>
    </linearGradient>
  </defs>
  <rect width="900" height="520" rx="32" fill="url(#bg)"/>
  <g fill="#ffffff" opacity="0.25">
    <circle cx="70" cy="80" r="2"/><circle cx="140" cy="50" r="1.5"/><circle cx="250" cy="110" r="2"/>
    <circle cx="360" cy="70" r="1.5"/><circle cx="520" cy="90" r="2"/><circle cx="760" cy="60" r="1.5"/><circle cx="830" cy="120" r="2"/>
  </g>
  <g transform="translate(70,210)">
    <rect x="0" y="140" width="760" height="10" fill="#ffffff" opacity="0.12"/>
    <rect x="10" y="60" width="90" height="90" rx="6" fill="#ffffff" opacity="0.14"/>
    <rect x="120" y="20" width="110" height="130" rx="6" fill="#ffffff" opacity="0.16"/>
    <rect x="250" y="80" width="80" height="70" rx="6" fill="#ffffff" opacity="0.14"/>
    <rect x="350" y="10" width="140" height="140" rx="6" fill="#ffffff" opacity="0.18"/>
    <rect x="510" y="50" width="90" height="100" rx="6" fill="#ffffff" opacity="0.14"/>
    <rect x="620" y="30" width="120" height="120" rx="6" fill="#ffffff" opacity="0.16"/>
    <rect x="350" y="-18" width="140" height="36" rx="18" fill="none" stroke="url(#neon)" stroke-width="6"/>
    <text x="420" y="7" text-anchor="middle" font-family="system-ui,Segoe UI,Roboto,Arial" font-size="16" fill="#ffffff" font-weight="800">LAS VEGAS</text>
  </g>
  <g transform="translate(560,130)">
    <rect x="0" y="20" width="220" height="280" rx="18" fill="#ffffff" opacity="0.92"/>
    <rect x="24" y="52" width="172" height="18" rx="9" fill="#e94b3c"/>
    <rect x="24" y="92" width="172" height="140" rx="16" fill="#0b3c5d" opacity="0.12"/>
    <circle cx="72" cy="250" r="10" fill="#0b3c5d" opacity="0.75"/>
    <circle cx="148" cy="250" r="10" fill="#0b3c5d" opacity="0.75"/>
    <path d="M-30 60c11-11 29-11 40 0l-14 14 18 18 14-14c11 11 11 29 0 40l-12 12-32-32-12 12c-4 4-9 4-13 0l-5-5c-4-4-4-9 0-13l12-12-9-9 13-13z" fill="#ffd166" opacity="0.95"/>
  </g>
  <text x="90" y="86" font-family="system-ui,Segoe UI,Roboto,Arial" font-size="34" fill="#ffffff" font-weight="900">Reliable Appliance Repair</text>
  <text x="90" y="124" font-family="system-ui,Segoe UI,Roboto,Arial" font-size="18" fill="#ffffff" opacity="0.85">Fast appointments • Clear pricing • Local professionals</text>
</svg>